<svg width="15" height="13" viewBox="0 0 15 13" fill="none" xmlns="http://www.w3.org/2000/svg">
<path fill-rule="evenodd" clip-rule="evenodd" d="M6.07918 0.41459C6.20622 0.160502 6.46592 0 6.75 0C7.47935 0 8.17882 0.289731 8.69454 0.805456C9.21027 1.32118 9.5 2.02065 9.5 2.75V3.5H12.6179C12.8664 3.49953 13.1121 3.55216 13.3385 3.65438C13.5653 3.75673 13.7676 3.90643 13.9317 4.09342C14.0958 4.28041 14.2181 4.50036 14.2902 4.73849C14.3619 4.97556 14.3824 5.22518 14.3501 5.47074L13.6004 11.4687C13.5473 11.8903 13.3426 12.2781 13.0247 12.5598C12.7067 12.8416 12.2971 12.998 11.8722 13L11.8687 13H1.25C0.918481 13 0.600538 12.8683 0.366116 12.6339C0.131696 12.3995 0 12.0815 0 11.75V6.25C0 5.91848 0.131696 5.60054 0.366116 5.36612C0.600536 5.1317 0.918478 5 1.25 5H3.78647L6.07918 0.41459ZM3.5 6.5H1.5V11.5H3.5V6.5ZM5 11.5H11.8664C11.9267 11.4995 11.9847 11.4771 12.0299 11.4371C12.0753 11.3969 12.1045 11.3415 12.1121 11.2813L12.862 5.28197L12.8628 5.27594C12.8674 5.24147 12.8646 5.20641 12.8545 5.17312C12.8444 5.13983 12.8273 5.10909 12.8044 5.08295C12.7815 5.05681 12.7532 5.03589 12.7215 5.02158C12.6898 5.00727 12.6554 4.99991 12.6206 5L12.6187 5H8.75C8.33579 5 8 4.66421 8 4.25V2.75C8 2.41848 7.8683 2.10054 7.63388 1.86612C7.5032 1.73544 7.34657 1.63668 7.17609 1.57486L5 5.92705V11.5Z" fill="white"/>
</svg>
