<svg width="15" height="13" viewBox="0 0 15 13" fill="none" xmlns="http://www.w3.org/2000/svg">
<path fill-rule="evenodd" clip-rule="evenodd" d="M1.5 1.5V6.5H3.5V1.5H1.5ZM5 1.5V7.07295L7.17609 11.4251C7.34657 11.3633 7.5032 11.2646 7.63388 11.1339C7.8683 10.8995 8 10.5815 8 10.25V8.75C8 8.33579 8.33579 8 8.75 8H12.6187L12.6206 8C12.6554 8.00009 12.6898 7.99273 12.7215 7.97842C12.7532 7.96412 12.7815 7.94319 12.8044 7.91705C12.8273 7.89091 12.8444 7.86017 12.8545 7.82688C12.8646 7.79359 12.8674 7.75853 12.8628 7.72406L12.862 7.71803L12.1121 1.71874C12.1045 1.65852 12.0753 1.60313 12.0299 1.56288C11.9848 1.52288 11.9267 1.50056 11.8664 1.5H5ZM3.78647 8H1.25C0.918481 8 0.600538 7.86831 0.366116 7.63388C0.131696 7.39946 0 7.08152 0 6.75V1.25C0 0.918479 0.131696 0.600537 0.366116 0.366117C0.600537 0.131696 0.918479 0 1.25 0H11.8687L11.8722 8.10623e-06C12.2971 0.00198706 12.7067 0.158444 13.0247 0.440195C13.3426 0.721946 13.5473 1.10975 13.6004 1.53126L13.6005 1.53197L14.3501 7.52925C14.3824 7.77481 14.3619 8.02444 14.2902 8.26151C14.2181 8.49964 14.0958 8.71959 13.9317 8.90658C13.7676 9.09357 13.5653 9.24327 13.3385 9.34562C13.1121 9.44781 12.8665 9.50044 12.6181 9.5H9.5V10.25C9.5 10.9793 9.21027 11.6788 8.69454 12.1945C8.17882 12.7103 7.47935 13 6.75 13C6.46592 13 6.20622 12.8395 6.07918 12.5854L3.78647 8Z" fill="white"/>
</svg>
