<svg width="24" height="21" viewBox="0 0 24 21" fill="none" xmlns="http://www.w3.org/2000/svg">
<path d="M23.7209 6.73943C23.4434 6.07984 22.9823 5.60427 22.3872 5.36474L22.3792 5.36174C22.1084 5.25565 21.82 5.20137 21.5291 5.20172H21.4971C20.1349 5.22222 18.7442 6.37988 18.0371 8.08262C17.5185 9.32779 17.459 10.667 17.8781 11.6651C18.1551 12.3252 18.6172 12.8008 19.2148 13.0403L19.2213 13.0428C19.4922 13.1488 19.7805 13.2031 20.0714 13.2028C21.4466 13.2028 22.8518 12.0452 23.5719 10.3199C24.084 9.07625 24.1405 7.73807 23.7209 6.73943Z" fill="#387E96"/>
<path d="M18.2781 14.0834C17.4925 13.6114 16.7499 13.1648 16.2649 12.3627C14.9267 10.1424 14.1186 8.80222 11.9998 8.80222C9.88099 8.80222 9.07088 10.1424 7.72969 12.3627C7.24363 13.1658 6.49952 13.6129 5.71141 14.0869C4.80779 14.63 3.87416 15.1911 3.47111 16.2952C3.31442 16.6933 3.23548 17.1177 3.23857 17.5454C3.23857 19.3432 4.63877 20.8059 6.359 20.8059C7.24663 20.8059 8.19126 20.4983 9.1909 20.1728C10.152 19.8597 11.1457 19.5362 12.0048 19.5362C12.8639 19.5362 13.855 19.8597 14.8127 20.1728C15.8103 20.4963 16.7504 20.8039 17.6406 20.8039C19.3583 20.8039 20.756 19.3412 20.756 17.5434C20.7574 17.1153 20.6768 16.691 20.5185 16.2932C20.1154 15.1881 19.1813 14.6265 18.2781 14.0834Z" fill="#387E96"/>
<path d="M6.69905 7.04447C7.29413 7.79108 8.04924 8.20213 8.82535 8.20213C8.9313 8.20213 9.0371 8.19427 9.14189 8.17863C10.7606 7.9406 11.7693 5.96532 11.4382 3.67801C11.2997 2.71638 10.9296 1.82075 10.3996 1.15666C9.80548 0.411557 9.04938 0.00100016 8.27377 0.00100016C8.16782 0.00100356 8.06201 0.00885955 7.95722 0.0245035C6.3385 0.262536 5.32986 2.23781 5.66091 4.52513C5.79893 5.48526 6.16898 6.37988 6.69905 7.04447Z" fill="#387E96"/>
<path d="M14.8582 8.17863C14.963 8.19427 15.0688 8.20213 15.1747 8.20213C15.9513 8.20213 16.7059 7.79108 17.301 7.04447C17.8306 6.37988 18.1986 5.48526 18.3387 4.52412C18.6697 2.23781 17.6611 0.262536 16.0423 0.0235033C15.9376 0.00785939 15.8317 3.39596e-06 15.7258 0C14.9502 0.00100014 14.1941 0.411557 13.6 1.15666C13.0699 1.82075 12.6999 2.71638 12.5619 3.67901C12.2308 5.96532 13.2395 7.9406 14.8582 8.17863Z" fill="#387E96"/>
<path d="M4.77829 13.0428L4.78529 13.0403C5.38187 12.8008 5.84343 12.3257 6.11997 11.6661C6.53903 10.666 6.48002 9.32829 5.96245 8.08312C5.24585 6.35988 3.84116 5.20172 2.46747 5.20172C2.17657 5.2013 1.88819 5.25558 1.61735 5.36174L1.61035 5.36424C1.01527 5.60177 0.553702 6.07884 0.277164 6.73843C-0.141894 7.73857 -0.0828855 9.07625 0.434686 10.3214C1.15128 12.0447 2.55598 13.2028 3.92967 13.2028C4.22006 13.2031 4.50792 13.1488 4.77829 13.0428Z" fill="#387E96"/>
</svg>
